# xmcd
# 
# Track frame offsets:
#   150
#   15033
#   29294
#   45946
#   69349
#   89377
#   107037
#   127769
#   142687
#   161815
#   182381
#   200159
#   217487
#   235489
#   249817
#   276595
# 
# Disc length: 3702 seconds
# 
# Revision: 2
# Processed by: cddbd v1.5.2PL0 Copyright (c) Steve Scherf et al.
# Submitted via: Synapstar 1.0 
# 
DISCID=d50e7410
DTITLE=Various Artist - Country Hits of August 2004
DYEAR=2004
DGENRE=Country
TTITLE0=In the Style of Tracy Lawrence - It's All How You Look At It
TTITLE1=In the Style of Trick Pony - The Bride
TTITLE2=In the Style of Gary Allan - Nothing On But The Radio
TTITLE3=In the Style of Tim McGraw - Live Like You Were Dying
TTITLE4=In the Style of Sugarland - Baby Girl
TTITLE5=In the Style of Rushlow - Sweet Summer Rain
TTITLE6=In the Style of Kid Rock - Single Father
TTITLE7=In the Style of Jimmy Buffet - Hey Good Lookin'
TTITLE8=In the Style of Ryan Tyler - The Last Thing She Said
TTITLE9=In the Style of Lonestar - Somebody's Someone
TTITLE10=In the Style of Kenny Rogers - My World Is Over
TTITLE11=In the Style of Montgomery Gentry - You Do Your Thing
TTITLE12=In the Style of Katrina Elam - I Won't Say Goodbye
TTITLE13=In the Style of Shannon Lawson - Just Like A Redneck
TTITLE14=In the Style of Keith Bryant - Ridin' With The Legend
TTITLE15=None - None
EXTD=MediaType: Karaoke CD+G Producer: Unknown
EXTT0=
EXTT1=
EXTT2=
EXTT3=
EXTT4=
EXTT5=
EXTT6=
EXTT7=
EXTT8=
EXTT9=
EXTT10=
EXTT11=
EXTT12=
EXTT13=
EXTT14=
EXTT15=
PLAYORDER=
